<svg width="45" height="198" viewBox="0 0 45 198" fill="none" xmlns="http://www.w3.org/2000/svg">
<rect x="1.5" y="9.5" width="42" height="187" fill="#11133C" stroke="#F9EAD4" stroke-width="3"/>
<rect x="14.5" y="1.5" width="15" height="7" fill="#11133C" stroke="#F9EAD4" stroke-width="3"/>
<path d="M20.5909 42.0114V23.2614H23.7727V42.0114H20.5909ZM12.8068 34.2273V31.0455H31.5568V34.2273H12.8068Z" fill="#F9EAD4"/>
<path d="M18.7713 86H15.4759L20.4972 71.4545H24.4602L29.4744 86H26.179L22.5355 74.7784H22.4219L18.7713 86ZM18.5653 80.2827H26.3494V82.6832H18.5653V80.2827ZM18.7713 110H15.4759L20.4972 95.4545H24.4602L29.4744 110H26.179L22.5355 98.7784H22.4219L18.7713 110ZM18.5653 104.283H26.3494V106.683H18.5653V104.283ZM18.7713 134H15.4759L20.4972 119.455H24.4602L29.4744 134H26.179L22.5355 122.778H22.4219L18.7713 134ZM18.5653 128.283H26.3494V130.683H18.5653V128.283Z" fill="#F9EAD4"/>
<path d="M28.5682 171.966V175.091H15.8409V171.966H28.5682Z" fill="#F9EAD4"/>
</svg>
